<svg width="84" height="55" viewBox="0 0 84 55" fill="none" xmlns="http://www.w3.org/2000/svg">
<path d="M13.8905 39.364V47.968C13.8905 49.3 13.5125 50.326 12.7565 51.046C12.0125 51.766 11.0045 52.126 9.73249 52.126C8.40049 52.126 7.33249 51.748 6.52849 50.992C5.72449 50.236 5.32249 49.162 5.32249 47.77H8.38249C8.38249 48.298 8.49049 48.7 8.70649 48.976C8.92249 49.24 9.23449 49.372 9.64249 49.372C10.0145 49.372 10.3025 49.252 10.5065 49.012C10.7105 48.772 10.8125 48.424 10.8125 47.968V39.364H13.8905ZM20.4007 39.364V46.924C20.4007 47.68 20.5867 48.262 20.9587 48.67C21.3307 49.078 21.8767 49.282 22.5967 49.282C23.3167 49.282 23.8687 49.078 24.2527 48.67C24.6367 48.262 24.8287 47.68 24.8287 46.924V39.364H27.9067V46.906C27.9067 48.034 27.6667 48.988 27.1867 49.768C26.7067 50.548 26.0587 51.136 25.2427 51.532C24.4387 51.928 23.5387 52.126 22.5427 52.126C21.5467 52.126 20.6527 51.934 19.8607 51.55C19.0807 51.154 18.4627 50.566 18.0067 49.786C17.5507 48.994 17.3227 48.034 17.3227 46.906V39.364H20.4007ZM42.3721 52H39.2941L34.1461 44.206V52H31.0681V39.364H34.1461L39.2941 47.194V39.364H42.3721V52ZM53.4693 49.768H48.7533L47.9973 52H44.7753L49.3473 39.364H52.9113L57.4833 52H54.2253L53.4693 49.768ZM52.6773 47.392L51.1113 42.766L49.5633 47.392H52.6773ZM62.9528 39.364V52H59.8748V39.364H62.9528ZM70.9174 39.364C72.2494 39.364 73.4134 39.628 74.4094 40.156C75.4054 40.684 76.1734 41.428 76.7134 42.388C77.2654 43.336 77.5414 44.434 77.5414 45.682C77.5414 46.918 77.2654 48.016 76.7134 48.976C76.1734 49.936 75.3994 50.68 74.3914 51.208C73.3954 51.736 72.2374 52 70.9174 52H66.1834V39.364H70.9174ZM70.7194 49.336C71.8834 49.336 72.7894 49.018 73.4374 48.382C74.0854 47.746 74.4094 46.846 74.4094 45.682C74.4094 44.518 74.0854 43.612 73.4374 42.964C72.7894 42.316 71.8834 41.992 70.7194 41.992H69.2614V49.336H70.7194Z" fill="url(#paint0_linear_136_217)"/>
<path d="M24.75 0C13.1238 0 7 8.3325 7 16.5C7 24.6675 13.1238 33 24.75 33C31.7613 33 37.3525 28.38 42.5 22.935C47.6475 28.38 53.0612 33 60.25 33C71.8762 33 78 24.6675 78 16.5C78 8.3325 71.8762 0 60.25 0C53.0612 0 47.6475 4.62 42.5 10.065C37.3525 4.62 31.7613 0 24.75 0ZM24.75 8.25C28.4775 8.25 32.56 12.1275 36.6425 16.5C32.56 20.8725 28.4775 24.75 24.75 24.75C18.1825 24.75 15.875 20.295 15.875 16.5C15.875 12.705 18.1825 8.25 24.75 8.25ZM60.25 8.25C66.8175 8.25 69.125 12.705 69.125 16.5C69.125 20.295 66.8175 24.75 60.25 24.75C56.4337 24.75 52.3512 20.8725 48.3575 16.5C52.44 12.1275 56.4337 8.25 60.25 8.25Z" fill="url(#paint1_linear_136_217)"/>
<defs>
<linearGradient id="paint0_linear_136_217" x1="-4.02253" y1="46.5" x2="84" y2="46.5" gradientUnits="userSpaceOnUse">
<stop offset="0.0260229" stop-color="#13B0F5"/>
<stop offset="1" stop-color="#E70FAA"/>
</linearGradient>
<linearGradient id="paint1_linear_136_217" x1="3.6" y1="16.5001" x2="78" y2="16.5001" gradientUnits="userSpaceOnUse">
<stop offset="0.0260229" stop-color="#13B0F5"/>
<stop offset="1" stop-color="#E70FAA"/>
</linearGradient>
</defs>
</svg>
